<svg xmlns="http://www.w3.org/2000/svg" width="180" height="180" viewBox="0 0 91 108" preserveAspectRatio="xMidYMid meet">
  <!-- Fondo blanco para el favicon -->
  <rect width="91" height="108" fill="white"/>
  
  <!-- SVG definitivo de la calculadora con color corporativo naranja #EA580C -->
  <g transform="translate(0,108) scale(0.100000,-0.100000)" fill="#EA580C" stroke="none">
    <path d="M121 1070 c-45 -11 -90 -58 -101 -106 -12 -51 -12 -817 0 -869 5 -24
21 -51 40 -68 l30 -27 371 0 371 0 33 33 c45 45 47 67 43 544 -3 387 -4 403
-24 429 -11 15 -33 37 -48 48 -26 20 -41 21 -354 23 -180 1 -342 -2 -361 -7z
m677 -102 c17 -17 17 -859 0 -876 -17 -17 -659 -17 -676 0 -17 17 -17 859 0
876 17 17 659 17 676 0z"/>
    <path d="M230 860 c-24 -24 -24 -30 -6 -56 14 -18 28 -19 236 -19 208 0 222 1
236 19 18 26 18 32 -6 56 -19 19 -33 20 -230 20 -197 0 -211 -1 -230 -20z"/>
    <path d="M242 673 c-22 -9 -34 -41 -22 -63 23 -44 101 -12 84 35 -5 13 -36 37
-46 34 -2 0 -9 -3 -16 -6z"/>
    <path d="M442 673 c-22 -9 -34 -41 -22 -63 23 -44 101 -12 84 35 -5 13 -36 37
-46 34 -2 0 -9 -3 -16 -6z"/>
    <path d="M642 673 c-22 -9 -34 -41 -22 -63 23 -44 101 -12 84 35 -5 13 -36 37
-46 34 -2 0 -9 -3 -16 -6z"/>
    <path d="M242 473 c-22 -9 -34 -41 -22 -63 23 -44 101 -12 84 35 -5 13 -36 37
-46 34 -2 0 -9 -3 -16 -6z"/>
    <path d="M442 473 c-22 -9 -34 -41 -22 -63 23 -44 101 -12 84 35 -5 13 -36 37
-46 34 -2 0 -9 -3 -16 -6z"/>
    <path d="M630 460 c-17 -17 -20 -33 -20 -126 0 -121 8 -144 50 -144 42 0 50
23 50 144 0 93 -3 109 -20 126 -11 11 -24 20 -30 20 -5 0 -19 -9 -30 -20z"/>
    <path d="M242 273 c-22 -9 -34 -41 -22 -63 23 -44 101 -12 84 35 -5 13 -36 37
-46 34 -2 0 -9 -3 -16 -6z"/>
    <path d="M442 273 c-22 -9 -34 -41 -22 -63 23 -44 101 -12 84 35 -5 13 -36 37
-46 34 -2 0 -9 -3 -16 -6z"/>
  </g>
</svg>
